<?xml version="1.0"?>
<svg xmlns="http://www.w3.org/2000/svg" xmlns:xlink="http://www.w3.org/1999/xlink" xmlns:svgjs="http://svgjs.com/svgjs" version="1.1" width="512" height="512" x="0" y="0" viewBox="0 0 512 512" style="enable-background:new 0 0 512 512" xml:space="preserve"><g>
<g xmlns="http://www.w3.org/2000/svg">
	<g>
		<path d="M109.109,321.878h-4.451c-6.556,0-11.87,5.315-11.87,11.87c0,6.555,5.314,11.87,11.87,11.87h4.451    c6.556,0,11.87-5.315,11.87-11.87C120.979,327.194,115.665,321.878,109.109,321.878z" fill="#fca600" data-original="#000000" style=""/>
	</g>
</g>
<g xmlns="http://www.w3.org/2000/svg">
	<g>
		<path d="M500.13,76.17H11.87C5.314,76.17,0,81.485,0,88.04v245.709v46.685c0,6.555,5.314,11.87,11.87,11.87h194.68v19.787h-45.51    c-6.556,0-11.87,5.315-11.87,11.87c0,6.555,5.314,11.87,11.87,11.87h189.92c6.556,0,11.87-5.315,11.87-11.87    c0-6.555-5.314-11.87-11.87-11.87h-45.498v-19.787H500.13c6.556,0,11.87-5.315,11.87-11.87v-46.685V88.04    C512,81.484,506.686,76.17,500.13,76.17z M281.722,412.09H230.29v-19.787h51.433V412.09z M488.26,321.878H146.796    c-6.556,0-11.87,5.315-11.87,11.87c0,6.555,5.314,11.87,11.87,11.87H488.26v22.945H293.592H218.42H23.74v-22.945h44.714    c6.556,0,11.87-5.315,11.87-11.87c0-6.555-5.314-11.87-11.87-11.87H23.74V99.91h464.52V321.878z" fill="#fca600" data-original="#000000" style=""/>
	</g>
</g>
<g xmlns="http://www.w3.org/2000/svg">
</g>
<g xmlns="http://www.w3.org/2000/svg">
</g>
<g xmlns="http://www.w3.org/2000/svg">
</g>
<g xmlns="http://www.w3.org/2000/svg">
</g>
<g xmlns="http://www.w3.org/2000/svg">
</g>
<g xmlns="http://www.w3.org/2000/svg">
</g>
<g xmlns="http://www.w3.org/2000/svg">
</g>
<g xmlns="http://www.w3.org/2000/svg">
</g>
<g xmlns="http://www.w3.org/2000/svg">
</g>
<g xmlns="http://www.w3.org/2000/svg">
</g>
<g xmlns="http://www.w3.org/2000/svg">
</g>
<g xmlns="http://www.w3.org/2000/svg">
</g>
<g xmlns="http://www.w3.org/2000/svg">
</g>
<g xmlns="http://www.w3.org/2000/svg">
</g>
<g xmlns="http://www.w3.org/2000/svg">
</g>
</g></svg>
