<?xml version="1.0"?>
<svg xmlns="http://www.w3.org/2000/svg" xmlns:xlink="http://www.w3.org/1999/xlink" xmlns:svgjs="http://svgjs.com/svgjs" version="1.1" width="512" height="512" x="0" y="0" viewBox="0 0 512 512" style="enable-background:new 0 0 512 512" xml:space="preserve" class=""><g><g xmlns="http://www.w3.org/2000/svg"><path d="m412 377.29v-108.357c0-4.143-3.357-7.5-7.5-7.5s-7.5 3.357-7.5 7.5v107.067h-154c-4.143 0-7.5 3.357-7.5 7.5s3.357 7.5 7.5 7.5h161.5c4.136 0 7.5 3.364 7.5 7.5s-3.364 7.5-7.5 7.5h-297c-4.136 0-7.5-3.364-7.5-7.5s3.364-7.5 7.5-7.5h100.5c4.143 0 7.5-3.357 7.5-7.5s-3.357-7.5-7.5-7.5h-93v-165h282v22.933c0 4.143 3.357 7.5 7.5 7.5s7.5-3.357 7.5-7.5v-24.223c8.729-3.096 15-11.433 15-21.21s-6.271-18.114-15-21.21c1.732-31.439-20.089-58.425-51-61.913v-50.377h6c15.163 0 27.5-12.337 27.5-27.5s-12.337-27.5-27.5-27.5h-222c-15.163 0-27.5 12.337-27.5 27.5s12.337 27.5 27.5 27.5h6v50.378c-30.552 3.401-53.144 30.79-51 61.913-8.729 3.096-15 11.433-15 21.21s6.271 18.114 15 21.21v167.58c-8.729 3.096-15 11.433-15 21.21s6.271 18.114 15 21.21c-2.786 26.606 15.846 51.945 40 59.558v10.231c0 12.406 10.094 22.5 22.5 22.5h187c12.406 0 22.5-10.094 22.5-22.5v-10.232c24.659-7.925 41.994-32.45 40-59.558 8.729-3.096 15-11.433 15-21.21s-6.271-18.114-15-21.21zm-267-337.29c-6.893 0-12.5-5.607-12.5-12.5s5.607-12.5 12.5-12.5h222c6.893 0 12.5 5.607 12.5 12.5s-5.607 12.5-12.5 12.5zm201 15v50h-30v-50zm-69.5 18h-41c-4.143 0-7.5 3.357-7.5 7.5s3.357 7.5 7.5 7.5h13v17h-37.5v-50h90v50h-37.5v-17h13c4.143 0 7.5-3.357 7.5-7.5s-3.357-7.5-7.5-7.5zm-80.5-18v50h-30v-50zm-38.5 65h197c24.437-.102 44.497 21.319 42.5 46h-282c-1.641-24.74 17.619-46.018 42.5-46zm-50 61h297c4.136 0 7.5 3.364 7.5 7.5s-3.364 7.5-7.5 7.5h-297c-4.136 0-7.5-3.364-7.5-7.5s3.364-7.5 7.5-7.5zm249.5 308.5c0 4.136-3.364 7.5-7.5 7.5h-187c-4.136 0-7.5-3.364-7.5-7.5v-7.563c4.277.18 197.627.179 202 0zm-2.5-22.5h-197c-25.089.001-44.051-21.302-42.5-46h282c1.022 24.354-17.167 46.112-42.5 46zm-167.086-173.5c0 37.818 30.768 68.586 68.586 68.586s68.586-30.768 68.586-68.586-30.768-68.586-68.586-68.586-68.586 30.768-68.586 68.586zm122.172 0c0 29.548-24.038 53.586-53.586 53.586s-53.586-24.038-53.586-53.586 24.038-53.586 53.586-53.586 53.586 24.038 53.586 53.586zm-61.686-27.03c-12.083 14.663-18.21 25.971-18.21 33.608 0 14.293 11.803 25.921 26.31 25.921s26.31-11.628 26.31-25.921c0-7.638-6.127-18.945-18.207-33.605-2.002-2.432-4.955-3.826-8.103-3.826s-6.101 1.394-8.1 3.823zm19.41 33.608c0 6.021-5.073 10.921-11.31 10.921s-11.31-4.899-11.31-10.921c0-2.179 3.082-9.039 11.31-19.712 8.227 10.672 11.31 17.533 11.31 19.712z" fill="#fca600" data-original="#000000" style=""/></g></g></svg>
