<?xml version="1.0"?>
<svg xmlns="http://www.w3.org/2000/svg" xmlns:xlink="http://www.w3.org/1999/xlink" xmlns:svgjs="http://svgjs.com/svgjs" version="1.1" width="512" height="512" x="0" y="0" viewBox="0 0 506.386 506.386" style="enable-background:new 0 0 512 512" xml:space="preserve" class=""><g><g xmlns="http://www.w3.org/2000/svg"><path d="m143.339 268.857h-134.06c-3.962 0-7.174-3.212-7.174-7.174v-103.182c0-3.962 3.212-7.174 7.174-7.174h134.059c3.962 0 7.174 3.212 7.174 7.174v103.183c0 3.961-3.211 7.173-7.173 7.173zm-126.886-14.348h119.711v-88.835h-119.711z" fill="#fca600" data-original="#000000" style="" class=""/><path d="m327.407 297.582h-184.068c-3.962 0-7.174-3.212-7.174-7.174v-160.66c0-3.962 3.212-7.174 7.174-7.174h184.069c3.962 0 7.174 3.212 7.174 7.174v160.66c-.001 3.962-3.213 7.174-7.175 7.174zm-176.895-14.348h169.721v-146.312h-169.721z" fill="#fca600" data-original="#000000" style="" class=""/><path d="m475.29 347.591c-3.962 0-7.174-3.212-7.174-7.174v-108.262c-.047-41.417-33.615-74.978-75.032-75.018h-65.677c-3.962 0-7.174-3.212-7.174-7.174s3.212-7.174 7.174-7.174h65.677c49.338.047 89.325 40.028 89.38 89.366v108.255c.004 3.962-3.205 7.177-7.167 7.181-.002 0-.004 0-.007 0z" fill="#fca600" data-original="#000000" style="" class=""/><path d="m397.625 347.591c-3.962 0-7.174-3.212-7.174-7.174v-44.686c-.012-11.311-9.178-20.477-20.489-20.489h-42.556c-3.962 0-7.174-3.212-7.174-7.174s3.212-7.174 7.174-7.174h42.556c19.232.02 34.817 15.605 34.837 34.837v44.686c0 3.962-3.211 7.174-7.174 7.174z" fill="#fca600" data-original="#000000" style="" class=""/><path d="m497.106 401.316h-128.205c-3.962 0-7.174-3.212-7.174-7.174v-53.732c0-3.962 3.212-7.174 7.174-7.174h128.205c3.962 0 7.174 3.212 7.174 7.174v53.733c0 3.962-3.212 7.173-7.174 7.173zm-121.031-14.347h113.857v-39.385h-113.857z" fill="#fca600" data-original="#000000" style="" class=""/><path d="m257.225 136.922h-43.66c-3.962 0-7.174-3.212-7.174-7.174v-57.707c.005-3.962 3.222-7.169 7.184-7.164 3.954.005 7.159 3.21 7.164 7.164v50.533h29.313v-50.533c0-3.962 3.212-7.174 7.174-7.174s7.174 3.212 7.174 7.174v57.707c-.002 3.962-3.213 7.173-7.175 7.174z" fill="#fca600" data-original="#000000" style="" class=""/><path d="m235.373 87.68c-22.029-.004-39.884-17.865-39.88-39.894s17.865-39.884 39.894-39.88c22.023.004 39.876 17.856 39.88 39.88-.024 22.023-17.871 39.87-39.894 39.894zm0-65.434c-14.105.004-25.536 11.441-25.532 25.546s11.441 25.536 25.546 25.532c14.102-.004 25.532-11.437 25.532-25.539-.02-14.098-11.448-25.52-25.546-25.532z" fill="#fca600" data-original="#000000" style="" class=""/><path d="m342.867 95.621c-2.695.001-5.385-.224-8.042-.674l-80.986-13.925c-3.91-.641-6.559-4.331-5.918-8.241s4.331-6.559 8.241-5.918c.036.006.073.012.109.019l80.95 13.918c18.218 3.12 35.515-9.119 38.635-27.337s-9.119-35.515-27.337-38.635c-1.813-.31-3.648-.471-5.488-.48-1.98.027-3.954.212-5.904.552l-81.001 13.752c-3.907.664-7.611-1.965-8.275-5.872s1.965-7.611 5.872-8.275l81.065-13.788c2.717-.459 5.466-.698 8.221-.717 26.405.04 47.778 21.477 47.739 47.882-.038 26.405-21.476 47.779-47.881 47.739z" fill="#fca600" data-original="#000000" style="" class=""/><path d="m127.9 95.621c-26.403.05-47.847-21.314-47.897-47.717s21.314-47.847 47.717-47.897c2.727.022 5.447.262 8.135.717l81.159 13.81c3.939.426 6.787 3.965 6.36 7.904s-3.965 6.787-7.904 6.36c-.289-.031-.576-.08-.859-.146l-81.065-13.788c-1.925-.332-3.872-.512-5.825-.538-18.483.078-33.403 15.124-33.325 33.607s15.124 33.403 33.607 33.325c1.861-.008 3.717-.171 5.551-.487l80.9-13.882c3.885-.779 7.665 1.738 8.445 5.623.779 3.885-1.738 7.665-5.623 8.445-.124.025-.25.047-.375.065l-80.944 13.918c-2.662.452-5.357.68-8.057.681z" fill="#fca600" data-original="#000000" style="" class=""/><path d="m434.994 506.386c-18.059-.02-32.693-14.654-32.713-32.713 0-15.553 22.332-48.668 26.809-55.146 2.5-3.261 7.169-3.878 10.43-1.378.518.397.981.86 1.378 1.378 4.477 6.457 26.809 39.593 26.809 55.146-.019 18.058-14.654 32.693-32.713 32.713zm0-70.771c-8.939 14.082-18.365 31.4-18.365 38.065.2 10.141 8.583 18.199 18.724 17.999 9.859-.195 17.805-8.14 17.999-17.999-.007-6.701-9.419-23.99-18.358-38.065z" fill="#fca600" data-original="#000000" style="" class=""/></g></g></svg>
